<svg id="레이어_1" data-name="레이어 1" xmlns="http://www.w3.org/2000/svg" viewBox="0 0 182.87 48.26"><defs><style>.cls-1{isolation:isolate;}.cls-2,.cls-3{fill:#231815;}.cls-3{stroke:#040000;}.cls-4{fill:#191717;}.cls-5{fill:#152146;}.cls-6{fill:#013e86;}</style></defs><g id="그룹_224" data-name="그룹 224"><g id="그룹_228" data-name="그룹 228"><g id="구성_요소_21_1" data-name="구성 요소 21 1"><g id="WEGO_JAPAN" data-name="WEGO JAPAN" class="cls-1"><g class="cls-1"><path class="cls-2" d="M261.14,83.81,258.41,73h1.47l1.28,5.46c.32,1.35.61,2.69.8,3.73h0c.18-1.07.51-2.35.88-3.74L264.31,73h1.46l1.31,5.48c.3,1.28.59,2.56.75,3.7h0c.23-1.19.53-2.39.87-3.73L270.15,73h1.43l-3.06,10.79h-1.46l-1.36-5.62a32.48,32.48,0,0,1-.7-3.52h0a32.57,32.57,0,0,1-.83,3.52l-1.54,5.62Z" transform="translate(-192.74 -62.81)"/><path class="cls-2" d="M281.7,78.76h-4.19v3.88h4.67v1.17h-6.06V73h5.82v1.17h-4.43V77.6h4.19Z" transform="translate(-192.74 -62.81)"/><path class="cls-2" d="M295.4,83.33a9.9,9.9,0,0,1-3.31.59,5.06,5.06,0,0,1-5.54-5.44c0-3.22,2.22-5.57,5.84-5.57a6.54,6.54,0,0,1,2.69.5l-.34,1.14a5.47,5.47,0,0,0-2.38-.47A4,4,0,0,0,288,78.42c0,2.74,1.65,4.35,4.16,4.35a4.53,4.53,0,0,0,1.86-.29V79.27h-2.19V78.15h3.55Z" transform="translate(-192.74 -62.81)"/><path class="cls-2" d="M309.94,78.31c0,3.71-2.25,5.68-5,5.68s-4.85-2.21-4.85-5.48c0-3.42,2.13-5.66,5-5.66S309.94,75.11,309.94,78.31Zm-8.37.17c0,2.31,1.25,4.37,3.44,4.37s3.46-2,3.46-4.48c0-2.14-1.12-4.39-3.44-4.39S301.57,76.11,301.57,78.48Z" transform="translate(-192.74 -62.81)"/><path class="cls-2" d="M323.75,73h1.39v7.22c0,2.87-1.41,3.75-3.26,3.75a4.32,4.32,0,0,1-1.49-.26l.21-1.13a3.32,3.32,0,0,0,1.16.2c1.25,0,2-.56,2-2.67Z" transform="translate(-192.74 -62.81)"/><path class="cls-2" d="M332.41,80.42l-1.12,3.39h-1.45L333.51,73h1.68l3.68,10.79h-1.49l-1.15-3.39Zm3.53-1.09-1.05-3.1c-.24-.71-.4-1.35-.56-2h0c-.16.64-.33,1.29-.54,1.95l-1.06,3.12Z" transform="translate(-192.74 -62.81)"/><path class="cls-2" d="M343.65,73.15a16.51,16.51,0,0,1,2.68-.21,4.41,4.41,0,0,1,3,.9,2.92,2.92,0,0,1,.95,2.26,3.15,3.15,0,0,1-.84,2.3,4.42,4.42,0,0,1-3.29,1.19,4.9,4.9,0,0,1-1.13-.1v4.32h-1.39Zm1.39,5.2a4.69,4.69,0,0,0,1.16.12c1.68,0,2.7-.82,2.7-2.31s-1-2.11-2.54-2.11a6.28,6.28,0,0,0-1.32.11Z" transform="translate(-192.74 -62.81)"/><path class="cls-2" d="M355.77,80.42l-1.13,3.39H353.2L356.87,73h1.68l3.68,10.79h-1.49l-1.15-3.39Zm3.53-1.09-1.05-3.1c-.24-.71-.4-1.35-.56-2h0c-.16.64-.33,1.29-.54,1.95l-1.06,3.12Z" transform="translate(-192.74 -62.81)"/><path class="cls-2" d="M367,83.81V73h1.52L372,78.48A30.34,30.34,0,0,1,373.93,82l0,0c-.13-1.44-.16-2.75-.16-4.43V73h1.31V83.81H373.7l-3.42-5.47a35.57,35.57,0,0,1-2-3.6h-.05c.08,1.36.12,2.66.12,4.45v4.61Z" transform="translate(-192.74 -62.81)"/></g><g class="cls-1"><path class="cls-3" d="M261.14,83.81,258.41,73h1.47l1.28,5.46c.32,1.35.61,2.69.8,3.73h0c.18-1.07.51-2.35.88-3.74L264.31,73h1.46l1.31,5.48c.3,1.28.59,2.56.75,3.7h0c.23-1.19.53-2.39.87-3.73L270.15,73h1.43l-3.06,10.79h-1.46l-1.36-5.62a32.48,32.48,0,0,1-.7-3.52h0a32.57,32.57,0,0,1-.83,3.52l-1.54,5.62Z" transform="translate(-192.74 -62.81)"/><path class="cls-3" d="M281.7,78.76h-4.19v3.88h4.67v1.17h-6.06V73h5.82v1.17h-4.43V77.6h4.19Z" transform="translate(-192.74 -62.81)"/><path class="cls-3" d="M295.4,83.33a9.9,9.9,0,0,1-3.31.59,5.06,5.06,0,0,1-5.54-5.44c0-3.22,2.22-5.57,5.84-5.57a6.54,6.54,0,0,1,2.69.5l-.34,1.14a5.47,5.47,0,0,0-2.38-.47A4,4,0,0,0,288,78.42c0,2.74,1.65,4.35,4.16,4.35a4.53,4.53,0,0,0,1.86-.29V79.27h-2.19V78.15h3.55Z" transform="translate(-192.74 -62.81)"/><path class="cls-3" d="M309.94,78.31c0,3.71-2.25,5.68-5,5.68s-4.85-2.21-4.85-5.48c0-3.42,2.13-5.66,5-5.66S309.94,75.11,309.94,78.31Zm-8.37.17c0,2.31,1.25,4.37,3.44,4.37s3.46-2,3.46-4.48c0-2.14-1.12-4.39-3.44-4.39S301.57,76.11,301.57,78.48Z" transform="translate(-192.74 -62.81)"/><path class="cls-3" d="M323.75,73h1.39v7.22c0,2.87-1.41,3.75-3.26,3.75a4.32,4.32,0,0,1-1.49-.26l.21-1.13a3.32,3.32,0,0,0,1.16.2c1.25,0,2-.56,2-2.67Z" transform="translate(-192.74 -62.81)"/><path class="cls-3" d="M332.41,80.42l-1.12,3.39h-1.45L333.51,73h1.68l3.68,10.79h-1.49l-1.15-3.39Zm3.53-1.09-1.05-3.1c-.24-.71-.4-1.35-.56-2h0c-.16.64-.33,1.29-.54,1.95l-1.06,3.12Z" transform="translate(-192.74 -62.81)"/><path class="cls-3" d="M343.65,73.15a16.51,16.51,0,0,1,2.68-.21,4.41,4.41,0,0,1,3,.9,2.92,2.92,0,0,1,.95,2.26,3.15,3.15,0,0,1-.84,2.3,4.42,4.42,0,0,1-3.29,1.19,4.9,4.9,0,0,1-1.13-.1v4.32h-1.39Zm1.39,5.2a4.69,4.69,0,0,0,1.16.12c1.68,0,2.7-.82,2.7-2.31s-1-2.11-2.54-2.11a6.28,6.28,0,0,0-1.32.11Z" transform="translate(-192.74 -62.81)"/><path class="cls-3" d="M355.77,80.42l-1.13,3.39H353.2L356.87,73h1.68l3.68,10.79h-1.49l-1.15-3.39Zm3.53-1.09-1.05-3.1c-.24-.71-.4-1.35-.56-2h0c-.16.64-.33,1.29-.54,1.95l-1.06,3.12Z" transform="translate(-192.74 -62.81)"/><path class="cls-3" d="M367,83.81V73h1.52L372,78.48A30.34,30.34,0,0,1,373.93,82l0,0c-.13-1.44-.16-2.75-.16-4.43V73h1.31V83.81H373.7l-3.42-5.47a35.57,35.57,0,0,1-2-3.6h-.05c.08,1.36.12,2.66.12,4.45v4.61Z" transform="translate(-192.74 -62.81)"/></g></g><g id="INTERNATIONAL" class="cls-1"><g class="cls-1"><path class="cls-4" d="M268.65,94.68v6.73h-.87V94.68Z" transform="translate(-192.74 -62.81)"/><path class="cls-4" d="M273,101.41V94.68h.95l2.16,3.41a18.2,18.2,0,0,1,1.21,2.18h0c-.08-.9-.1-1.71-.1-2.76V94.68H278v6.73h-.88L275,98a21.39,21.39,0,0,1-1.26-2.25h0c0,.85.07,1.66.07,2.77v2.88Z" transform="translate(-192.74 -62.81)"/><path class="cls-4" d="M283.63,95.42h-2.05v-.74h5v.74h-2.06v6h-.88Z" transform="translate(-192.74 -62.81)"/><path class="cls-4" d="M293.61,98.26H291v2.42h2.92v.73h-3.79V94.68h3.64v.73H291v2.13h2.62Z" transform="translate(-192.74 -62.81)"/><path class="cls-4" d="M297.84,94.77a9.06,9.06,0,0,1,1.67-.14,2.76,2.76,0,0,1,1.95.55,1.68,1.68,0,0,1,.53,1.28,1.77,1.77,0,0,1-1.27,1.72v0a1.66,1.66,0,0,1,1,1.36,10.81,10.81,0,0,0,.52,1.84h-.9a8.73,8.73,0,0,1-.45-1.61c-.2-.93-.56-1.27-1.35-1.3h-.82v2.91h-.87Zm.87,3.07h.89c.93,0,1.52-.51,1.52-1.28s-.63-1.25-1.55-1.26a3.58,3.58,0,0,0-.86.08Z" transform="translate(-192.74 -62.81)"/><path class="cls-4" d="M306,101.41V94.68h1l2.16,3.41a18.2,18.2,0,0,1,1.21,2.18h0c-.08-.9-.1-1.71-.1-2.76V94.68h.82v6.73h-.88L308.06,98a21.39,21.39,0,0,1-1.26-2.25h0c.05.85.07,1.66.07,2.77v2.88Z" transform="translate(-192.74 -62.81)"/><path class="cls-4" d="M316.49,99.29l-.7,2.12h-.9l2.29-6.73h1.05l2.3,6.73h-.93l-.72-2.12Zm2.21-.68L318,96.68c-.15-.44-.25-.84-.35-1.23h0c-.1.4-.21.81-.34,1.22l-.66,1.94Z" transform="translate(-192.74 -62.81)"/><path class="cls-4" d="M324.83,95.42h-2v-.74h5v.74h-2.06v6h-.88Z" transform="translate(-192.74 -62.81)"/><path class="cls-4" d="M332.19,94.68v6.73h-.87V94.68Z" transform="translate(-192.74 -62.81)"/><path class="cls-4" d="M342.27,98c0,2.31-1.41,3.54-3.13,3.54s-3-1.38-3-3.41,1.33-3.54,3.13-3.54S342.27,96,342.27,98Zm-5.23.11c0,1.44.78,2.72,2.15,2.72s2.16-1.27,2.16-2.79c0-1.34-.7-2.74-2.15-2.74S337,96.61,337,98.09Z" transform="translate(-192.74 -62.81)"/><path class="cls-4" d="M346.2,101.41V94.68h.95l2.16,3.41a18.2,18.2,0,0,1,1.21,2.18h0c-.08-.9-.1-1.71-.1-2.76V94.68h.82v6.73h-.88L348.24,98A21.39,21.39,0,0,1,347,95.75h0c.05.85.07,1.66.07,2.77v2.88Z" transform="translate(-192.74 -62.81)"/><path class="cls-4" d="M356.67,99.29l-.7,2.12h-.9l2.29-6.73h1.05l2.3,6.73h-.93l-.72-2.12Zm2.21-.68-.66-1.93c-.15-.44-.25-.84-.35-1.23h0c-.1.4-.21.81-.34,1.22l-.66,1.94Z" transform="translate(-192.74 -62.81)"/><path class="cls-4" d="M364.5,94.68h.87v6h2.88v.73H364.5Z" transform="translate(-192.74 -62.81)"/></g></g></g><g id="그룹_221" data-name="그룹 221"><path id="패스_1002" data-name="패스 1002" class="cls-5" d="M192.74,64.82V99.46l22.78,11.39v-29l-6,4.64v15.11l-10.51-5.26V69Z" transform="translate(-192.74 -62.81)"/><path id="패스_1003" data-name="패스 1003" class="cls-6" d="M240,62.81V99.69l-22.77,11.38V80.47l6-4.67v26l10.51-5.26V67.76Z" transform="translate(-192.74 -62.81)"/></g></g></g></svg>