<svg id="레이어_1" data-name="레이어 1" xmlns="http://www.w3.org/2000/svg" viewBox="0 0 91.76 24.42"><defs><style>.cls-1{fill:#142144;}.cls-2{fill:#003d7d;}.cls-3{fill:#231815;}</style></defs><g id="그룹_228" data-name="그룹 228"><g id="그룹_221" data-name="그룹 221"><path id="패스_1002" data-name="패스 1002" class="cls-1" d="M71.65,70.17V84.7l12,5.77V75.79l-3.16,2.35v7.65L75,83.13V72.29Z" transform="translate(-71.65 -66.16)"/><path id="패스_1003" data-name="패스 1003" class="cls-2" d="M96.55,66.16V84.82l-12,5.76V75.1l3.16-2.37V85.89l5.54-2.66V68.66Z" transform="translate(-71.65 -66.16)"/></g></g><path class="cls-3" d="M105.48,77.8l-1.32-5.59h1.35l.42,2.3c.13.67.24,1.39.33,1.95h0c.09-.6.22-1.27.37-2l.47-2.29h1.34l.45,2.35c.13.66.22,1.26.3,1.88h0c.08-.62.2-1.28.32-1.94l.46-2.29h1.28l-1.44,5.59h-1.37L108,75.39c-.11-.56-.2-1.08-.27-1.72h0c-.1.63-.19,1.16-.32,1.72l-.53,2.41Z" transform="translate(-71.65 -66.16)"/><path class="cls-3" d="M116.44,75.43h-2v1.33h2.29v1h-3.56V72.21h3.45v1h-2.18V74.4h2Z" transform="translate(-71.65 -66.16)"/><path class="cls-3" d="M123.39,77.54a6,6,0,0,1-1.87.32,3.14,3.14,0,0,1-2.28-.76,2.7,2.7,0,0,1-.78-2,2.88,2.88,0,0,1,3.19-2.92,3.9,3.9,0,0,1,1.55.27l-.26,1a3.17,3.17,0,0,0-1.31-.24,1.83,1.83,0,1,0,.54,3.56V75.58h-.87v-1h2.09Z" transform="translate(-71.65 -66.16)"/><path class="cls-3" d="M130.66,74.94a2.67,2.67,0,0,1-2.75,3A2.61,2.61,0,0,1,125.28,75,2.71,2.71,0,0,1,128,72.11,2.61,2.61,0,0,1,130.66,74.94Zm-4,.08c0,1.09.51,1.87,1.36,1.87s1.34-.82,1.34-1.9-.48-1.87-1.35-1.87S126.62,73.93,126.62,75Z" transform="translate(-71.65 -66.16)"/><path class="cls-3" d="M136.59,72.21h1.26v3.53c0,1.59-.76,2.15-2,2.15a3.41,3.41,0,0,1-.92-.13l.14-1a2,2,0,0,0,.65.1c.53,0,.86-.24.86-1.12Z" transform="translate(-71.65 -66.16)"/><path class="cls-3" d="M141.37,76.36,141,77.8h-1.31l1.7-5.59H143l1.74,5.59h-1.36L143,76.36Zm1.42-.94-.34-1.19c-.1-.33-.2-.75-.29-1.08h0c-.09.33-.17.76-.26,1.08l-.33,1.19Z" transform="translate(-71.65 -66.16)"/><path class="cls-3" d="M146.68,72.28a9.9,9.9,0,0,1,1.71-.12,2.67,2.67,0,0,1,1.71.45,1.63,1.63,0,0,1,.6,1.3,1.75,1.75,0,0,1-.52,1.32,2.57,2.57,0,0,1-1.81.59,2.89,2.89,0,0,1-.44,0v2h-1.25Zm1.25,2.54a2.46,2.46,0,0,0,.43,0c.67,0,1.09-.34,1.09-.91s-.36-.82-1-.82a2,2,0,0,0-.53,0Z" transform="translate(-71.65 -66.16)"/><path class="cls-3" d="M153.48,76.36l-.4,1.44h-1.32l1.72-5.59h1.66l1.73,5.59h-1.36l-.43-1.44Zm1.41-.94-.34-1.19c-.1-.33-.2-.75-.29-1.08h0c-.09.33-.17.76-.26,1.08l-.33,1.19Z" transform="translate(-71.65 -66.16)"/><path class="cls-3" d="M158.78,77.8V72.21h1.48l1.16,2.05a14.54,14.54,0,0,1,.91,1.91h0a21.43,21.43,0,0,1-.11-2.33V72.21h1.16V77.8h-1.32l-1.2-2.16a21.19,21.19,0,0,1-1-2h0c0,.74.05,1.53.05,2.44V77.8Z" transform="translate(-71.65 -66.16)"/><path class="cls-3" d="M109,82.52v3.92h-.51V82.52Z" transform="translate(-71.65 -66.16)"/><path class="cls-3" d="M110.88,86.44V82.52h.55l1.26,2a11.94,11.94,0,0,1,.7,1.27h0c-.05-.52-.06-1-.06-1.61V82.52h.48v3.92h-.51l-1.25-2a14.58,14.58,0,0,1-.73-1.31h0c0,.49,0,1,0,1.61v1.68Z" transform="translate(-71.65 -66.16)"/><path class="cls-3" d="M116.49,83H115.3v-.43h2.9V83H117v3.49h-.52Z" transform="translate(-71.65 -66.16)"/><path class="cls-3" d="M121.71,84.6h-1.52V86h1.7v.43h-2.21V82.52h2.12v.42h-1.61v1.24h1.52Z" transform="translate(-71.65 -66.16)"/><path class="cls-3" d="M123.59,82.57a5.5,5.5,0,0,1,1-.08,1.64,1.64,0,0,1,1.14.32,1,1,0,0,1,.3.74,1,1,0,0,1-.73,1v0a1,1,0,0,1,.57.79,6.62,6.62,0,0,0,.3,1.08h-.52a5.47,5.47,0,0,1-.26-.94c-.12-.54-.33-.74-.78-.76h-.48v1.7h-.51Zm.51,1.79h.52c.54,0,.88-.3.88-.75s-.37-.73-.9-.73a1.7,1.7,0,0,0-.5.05Z" transform="translate(-71.65 -66.16)"/><path class="cls-3" d="M127.77,86.44V82.52h.55l1.25,2a10.56,10.56,0,0,1,.71,1.27h0c0-.52-.06-1-.06-1.61V82.52h.48v3.92h-.51l-1.25-2a14.58,14.58,0,0,1-.73-1.31h0c0,.49,0,1,0,1.61v1.68Z" transform="translate(-71.65 -66.16)"/><path class="cls-3" d="M133.27,85.2l-.41,1.24h-.52l1.33-3.92h.61l1.34,3.92h-.54l-.42-1.24Zm1.29-.39-.39-1.13c-.09-.25-.14-.49-.2-.71h0c-.06.23-.13.47-.2.71l-.38,1.13Z" transform="translate(-71.65 -66.16)"/><path class="cls-3" d="M137.54,83h-1.19v-.43h2.9V83h-1.2v3.49h-.51Z" transform="translate(-71.65 -66.16)"/><path class="cls-3" d="M141.23,82.52v3.92h-.5V82.52Z" transform="translate(-71.65 -66.16)"/><path class="cls-3" d="M146.51,84.44a1.83,1.83,0,0,1-1.82,2.06,1.8,1.8,0,0,1-1.76-2,1.87,1.87,0,0,1,1.82-2.06A1.79,1.79,0,0,1,146.51,84.44Zm-3,.06c0,.84.46,1.59,1.25,1.59s1.26-.74,1.26-1.63-.41-1.59-1.25-1.59S143.47,83.64,143.47,84.5Z" transform="translate(-71.65 -66.16)"/><path class="cls-3" d="M148.22,86.44V82.52h.55l1.25,2a10.56,10.56,0,0,1,.71,1.27h0c-.05-.52-.06-1-.06-1.61V82.52h.48v3.92h-.51l-1.25-2a14.58,14.58,0,0,1-.73-1.31h0c0,.49,0,1,0,1.61v1.68Z" transform="translate(-71.65 -66.16)"/><path class="cls-3" d="M153.72,85.2l-.4,1.24h-.53l1.33-3.92h.61l1.34,3.92h-.54l-.42-1.24Zm1.29-.39-.39-1.13c-.08-.25-.14-.49-.2-.71h0c-.06.23-.12.47-.2.71l-.38,1.13Z" transform="translate(-71.65 -66.16)"/><path class="cls-3" d="M157.69,82.52h.51V86h1.67v.43h-2.18Z" transform="translate(-71.65 -66.16)"/></svg>