<svg id="레이어_1" data-name="레이어 1" xmlns="http://www.w3.org/2000/svg" viewBox="0 0 40.81 46.41"><defs><style>.cls-1{fill:#fff;}</style></defs><g id="그룹_228" data-name="그룹 228"><g id="그룹_221" data-name="그룹 221"><path id="패스_1002" data-name="패스 1002" class="cls-1" d="M103.89,59.46V77.41l15,7.21V66.25l-4,2.94v9.57L108,75.43V62.11Z" transform="translate(-98.53 -54.19)"/><path id="패스_1003" data-name="패스 1003" class="cls-1" d="M135.06,54.19V77.55l-15,7.21V65.37l4-3V78.89l6.93-3.33V57.32Z" transform="translate(-98.53 -54.19)"/></g></g><path class="cls-1" d="M99.44,94.6l-.91-3.85h.93l.29,1.59c.09.46.17,1,.23,1.34h0c.06-.42.15-.88.25-1.35l.33-1.58h.93l.3,1.62c.09.45.15.87.21,1.3h0c.06-.43.14-.89.22-1.34l.32-1.58h.89l-1,3.85h-.94l-.33-1.66c-.07-.38-.14-.75-.18-1.19h0c-.07.44-.14.81-.23,1.19l-.36,1.66Z" transform="translate(-98.53 -54.19)"/><path class="cls-1" d="M107,93h-1.42v.92h1.59v.71H104.7V90.75h2.38v.71h-1.51v.8H107Z" transform="translate(-98.53 -54.19)"/><path class="cls-1" d="M111.77,94.43a4.42,4.42,0,0,1-1.29.21,2.1,2.1,0,0,1-1.56-.52,1.86,1.86,0,0,1-.55-1.4,2,2,0,0,1,2.21-2,2.54,2.54,0,0,1,1.07.19l-.19.69a2.16,2.16,0,0,0-.9-.16,1.26,1.26,0,0,0-.06,2.51,1.05,1.05,0,0,0,.43-.06v-.8h-.6V92.4h1.44Z" transform="translate(-98.53 -54.19)"/><path class="cls-1" d="M116.78,92.64a1.84,1.84,0,0,1-1.89,2,1.81,1.81,0,0,1-1.82-2,1.87,1.87,0,0,1,1.88-2A1.8,1.8,0,0,1,116.78,92.64Zm-2.79,0c0,.75.36,1.28.94,1.28s.93-.56.93-1.31-.33-1.28-.93-1.28S114,91.94,114,92.69Z" transform="translate(-98.53 -54.19)"/><path class="cls-1" d="M120.86,90.75h.87v2.43c0,1.1-.53,1.49-1.37,1.49a2.6,2.6,0,0,1-.64-.09l.1-.71a1.42,1.42,0,0,0,.45.07c.36,0,.59-.17.59-.77Z" transform="translate(-98.53 -54.19)"/><path class="cls-1" d="M124.15,93.61l-.27,1H123l1.17-3.85h1.15l1.19,3.85h-.93l-.3-1Zm1-.65-.24-.82c-.07-.23-.14-.51-.19-.74h0c-.06.23-.12.52-.18.74l-.23.82Z" transform="translate(-98.53 -54.19)"/><path class="cls-1" d="M127.81,90.8a6.66,6.66,0,0,1,1.18-.08,1.85,1.85,0,0,1,1.18.31,1.13,1.13,0,0,1,.41.89,1.24,1.24,0,0,1-.36.92,1.79,1.79,0,0,1-1.25.4,1.32,1.32,0,0,1-.3,0V94.6h-.86Zm.86,1.75a1.23,1.23,0,0,0,.29,0c.47,0,.75-.23.75-.63s-.24-.56-.68-.56a1.37,1.37,0,0,0-.36,0Z" transform="translate(-98.53 -54.19)"/><path class="cls-1" d="M132.49,93.61l-.28,1h-.9l1.18-3.85h1.14l1.2,3.85h-.94l-.3-1Zm1-.65-.24-.82c-.07-.23-.13-.51-.19-.74h0c-.06.23-.12.52-.18.74l-.23.82Z" transform="translate(-98.53 -54.19)"/><path class="cls-1" d="M136.14,94.6V90.75h1l.8,1.41a11.37,11.37,0,0,1,.63,1.32h0c0-.51-.07-1-.07-1.61V90.75h.8V94.6h-.91l-.83-1.48a14.5,14.5,0,0,1-.67-1.37h0c0,.51,0,1,0,1.68V94.6Z" transform="translate(-98.53 -54.19)"/><path class="cls-1" d="M101.83,97.86v2.69h-.35V97.86Z" transform="translate(-98.53 -54.19)"/><path class="cls-1" d="M103.15,100.55V97.86h.38l.87,1.36a8.84,8.84,0,0,1,.48.87h0c0-.36,0-.69,0-1.11V97.86h.33v2.69h-.35L104,99.18a6.74,6.74,0,0,1-.5-.9h0c0,.34,0,.66,0,1.11v1.15Z" transform="translate(-98.53 -54.19)"/><path class="cls-1" d="M107,98.15h-.82v-.29h2v.29h-.83v2.4H107Z" transform="translate(-98.53 -54.19)"/><path class="cls-1" d="M110.61,99.29h-1v1h1.16v.29h-1.51V97.86h1.45v.29h-1.1V99h1Z" transform="translate(-98.53 -54.19)"/><path class="cls-1" d="M111.91,97.89a4.27,4.27,0,0,1,.67,0,1.07,1.07,0,0,1,.78.22.68.68,0,0,1,.21.51.7.7,0,0,1-.51.68v0a.67.67,0,0,1,.4.54,4.12,4.12,0,0,0,.2.74h-.36a4.65,4.65,0,0,1-.18-.64c-.08-.37-.22-.51-.54-.53h-.32v1.17h-.35Zm.35,1.23h.35c.37,0,.61-.2.61-.51s-.25-.5-.62-.51a1.08,1.08,0,0,0-.34,0Z" transform="translate(-98.53 -54.19)"/><path class="cls-1" d="M114.78,100.55V97.86h.38l.87,1.36a8.84,8.84,0,0,1,.48.87h0c0-.36,0-.69,0-1.11V97.86h.33v2.69h-.36l-.85-1.37a8.21,8.21,0,0,1-.51-.9h0c0,.34,0,.66,0,1.11v1.15Z" transform="translate(-98.53 -54.19)"/><path class="cls-1" d="M118.57,99.7l-.28.85h-.36l.92-2.69h.42l.92,2.69h-.37l-.29-.85Zm.89-.27-.27-.77c-.06-.18-.1-.34-.14-.5h0c0,.16-.08.33-.13.49l-.27.78Z" transform="translate(-98.53 -54.19)"/><path class="cls-1" d="M121.51,98.15h-.82v-.29h2v.29h-.83v2.4h-.35Z" transform="translate(-98.53 -54.19)"/><path class="cls-1" d="M124.06,97.86v2.69h-.35V97.86Z" transform="translate(-98.53 -54.19)"/><path class="cls-1" d="M127.69,99.17a1.26,1.26,0,0,1-1.25,1.42,1.23,1.23,0,0,1-1.22-1.36,1.29,1.29,0,0,1,1.26-1.42A1.23,1.23,0,0,1,127.69,99.17Zm-2.09,0c0,.57.31,1.09.86,1.09s.86-.51.86-1.12-.28-1.09-.86-1.09S125.6,98.63,125.6,99.22Z" transform="translate(-98.53 -54.19)"/><path class="cls-1" d="M128.86,100.55V97.86h.38l.87,1.36a8.84,8.84,0,0,1,.48.87h0c0-.36,0-.69,0-1.11V97.86h.33v2.69h-.36l-.85-1.37a8.21,8.21,0,0,1-.51-.9h0c0,.34,0,.66,0,1.11v1.15Z" transform="translate(-98.53 -54.19)"/><path class="cls-1" d="M132.65,99.7l-.28.85H132l.92-2.69h.42l.92,2.69h-.37l-.29-.85Zm.89-.27-.27-.77c-.06-.18-.1-.34-.14-.5h0c0,.16-.08.33-.13.49l-.26.78Z" transform="translate(-98.53 -54.19)"/><path class="cls-1" d="M135.39,97.86h.35v2.4h1.15v.29h-1.5Z" transform="translate(-98.53 -54.19)"/></svg>