<svg id="레이어_1" data-name="레이어 1" xmlns="http://www.w3.org/2000/svg" viewBox="0 0 133.11 40.49"><defs><style>.cls-1{isolation:isolate;}.cls-2{fill:#040000;}</style></defs><g id="img_ceo_sign" data-name="img ceo sign"><g id="Park_Ha_dong" data-name="Park Ha dong" class="cls-1"><g class="cls-1"><path class="cls-2" d="M231.45,407.14a14.32,14.32,0,0,0-2.8.29,8.75,8.75,0,0,0-2.6.94,5.65,5.65,0,0,0-1.92,1.71,4.48,4.48,0,0,0-.75,2.65,6,6,0,0,0,.2,1.55,9,9,0,0,0,.49,1.36,8.38,8.38,0,0,0,.55,1.05c.19.29.34.5.45.64a1.3,1.3,0,0,1,.17.26.56.56,0,0,1,.07.26.35.35,0,0,1-.12.26.69.69,0,0,1-.44.11,3.13,3.13,0,0,1-1.17-.31,4.71,4.71,0,0,1-1.43-.94,5.3,5.3,0,0,1-1.2-1.61,5.09,5.09,0,0,1-.5-2.32,5.7,5.7,0,0,1,.37-2,8.26,8.26,0,0,1,1.09-2,10.28,10.28,0,0,1,1.76-1.88,11.2,11.2,0,0,1,2.39-1.56,14.45,14.45,0,0,1,3-1.07,15,15,0,0,1,3.52-.4A11.12,11.12,0,0,1,237,405a9.33,9.33,0,0,1,3.16,2.14,9,9,0,0,1,1.9,3.08,10.45,10.45,0,0,1,.64,3.64,10.61,10.61,0,0,1-.79,4.19,8.82,8.82,0,0,1-2.27,3.2,10.52,10.52,0,0,1-3.62,2,15.33,15.33,0,0,1-4.83.71h-.43a1.46,1.46,0,0,1-.43,0,.69.69,0,0,1-.31-.15.38.38,0,0,1-.12-.32.68.68,0,0,1,.11-.39.39.39,0,0,1,.31-.2,13.16,13.16,0,0,0,4-.88,7.34,7.34,0,0,0,2.62-1.75,6.2,6.2,0,0,0,1.43-2.47,10.09,10.09,0,0,0,.44-3,9.31,9.31,0,0,0-.58-3.49,6.39,6.39,0,0,0-1.57-2.37,6.18,6.18,0,0,0-2.34-1.33A9.46,9.46,0,0,0,231.45,407.14Zm-2.56,2.95a1.7,1.7,0,0,1,.52-.66,1.22,1.22,0,0,1,.76-.25,1.17,1.17,0,0,1,.39.09.33.33,0,0,1,.24.3,1.12,1.12,0,0,1,0,.27c0,.08,0,.19-.06.33-.22,1.05-.42,2.12-.59,3.21s-.31,2.15-.43,3.2-.23,2.07-.31,3-.14,1.87-.18,2.7-.08,1.56-.1,2.2,0,1.15,0,1.53c0,.62,0,1.25,0,1.89s0,1.25,0,1.81,0,1.06,0,1.49,0,.75,0,.93v.21a.77.77,0,0,1,0,.25.45.45,0,0,1-.12.21.29.29,0,0,1-.23.09,1.13,1.13,0,0,1-.45-.09l-.39-.21a2.32,2.32,0,0,0-.36-.22.72.72,0,0,0-.34-.09.42.42,0,0,0-.33.13.44.44,0,0,1-.32.13.52.52,0,0,1-.35-.11.67.67,0,0,1-.19-.28,1.35,1.35,0,0,1-.06-.35c0-.13,0-.24,0-.34s0-.6,0-1.11,0-1.08,0-1.72,0-1.3.07-2,0-1.36.07-2,.09-1.48.14-2.31.12-1.64.2-2.46.15-1.61.23-2.38.15-1.48.22-2.12.13-1.17.19-1.62.09-.75.12-.93a13.78,13.78,0,0,1,.27-1.39,2.16,2.16,0,0,1,.3-.78,1.47,1.47,0,0,1,.32-.29,1.81,1.81,0,0,1,.37-.22A1.18,1.18,0,0,1,228.89,410.09Z" transform="translate(-220.45 -402.82)"/><path class="cls-2" d="M251.12,424.16c-.38,1.11-.72,2.08-1,2.92a16.83,16.83,0,0,1-1,2.09,4.21,4.21,0,0,1-1,1.28,1.94,1.94,0,0,1-1.21.42,1.08,1.08,0,0,1-.77-.29,2.53,2.53,0,0,1-.51-.67,3.64,3.64,0,0,1-.31-.72c-.07-.23-.11-.38-.14-.45l0-.11c0-.05,0-.08,0-.08s-.05,0-.07.06l-.06.11a3.65,3.65,0,0,1-.3.48,5.37,5.37,0,0,1-.6.73,4.5,4.5,0,0,1-.83.65,1.79,1.79,0,0,1-1,.29,1.38,1.38,0,0,1-.82-.28,2.42,2.42,0,0,1-.7-.75,3.82,3.82,0,0,1-.47-1.12,5.19,5.19,0,0,1-.18-1.39,8.94,8.94,0,0,1,.51-3,9.89,9.89,0,0,1,1.66-2.84,9.21,9.21,0,0,1,1.18-1.23,9,9,0,0,1,1.21-.9,6.28,6.28,0,0,1,1.15-.55,3,3,0,0,1,.93-.18,1.54,1.54,0,0,1,.52.09,1.2,1.2,0,0,1,.47.32,1.69,1.69,0,0,1,.32.58,2.84,2.84,0,0,1,.12.88,5,5,0,0,1-.17,1.21,5,5,0,0,1-.52,1.21,3.2,3.2,0,0,1-.85.94,1.82,1.82,0,0,1-1.13.37c-.26,0-.39-.1-.39-.29a3.34,3.34,0,0,1,.1-.67,4,4,0,0,0,.1-.89c0-.11,0-.25,0-.4a2.36,2.36,0,0,0-.1-.46,1.18,1.18,0,0,0-.2-.37.45.45,0,0,0-.35-.15,1.11,1.11,0,0,0-.88.47,4.32,4.32,0,0,0-.62,1.13,8.88,8.88,0,0,0-.38,1.39,6.88,6.88,0,0,0-.13,1.24,5.44,5.44,0,0,0,.11,1.18,2.61,2.61,0,0,0,.3.76,1,1,0,0,0,.43.41,1.08,1.08,0,0,0,.5.12,1.64,1.64,0,0,0,1.09-.41,5.28,5.28,0,0,0,.84-.93c.23-.34.43-.65.58-.93s.28-.42.38-.42.19.13.23.39a11.4,11.4,0,0,0,.24,1.37,4.87,4.87,0,0,0,.26.85,1,1,0,0,0,.27.42.38.38,0,0,0,.28.13.77.77,0,0,0,.56-.33,5,5,0,0,0,.56-.88c.18-.37.37-.8.57-1.3s.41-1,.63-1.58c.14-.3.3-.46.48-.46s.28.11.28.33A1,1,0,0,1,251.12,424.16Z" transform="translate(-220.45 -402.82)"/><path class="cls-2" d="M258.5,424.16c-.29,1-.58,1.85-.88,2.67a14.08,14.08,0,0,1-.94,2.11,4.74,4.74,0,0,1-1.11,1.39,2,2,0,0,1-1.36.5,1.68,1.68,0,0,1-1.49-.93,4.74,4.74,0,0,1-.57-2.48,10.19,10.19,0,0,1,.07-1.26c0-.4.09-.78.14-1.15s.11-.73.15-1.08a7,7,0,0,0,.07-1,1.3,1.3,0,0,0-.13-.7.42.42,0,0,0-.34-.17H252l-.14,0-.3,0-.52.07-.34.75-.22.53-.16.38-.12.33a1.18,1.18,0,0,1-.26.43.38.38,0,0,1-.26.08.25.25,0,0,1-.19-.09.36.36,0,0,1-.09-.26.83.83,0,0,1,.06-.27c0-.1.08-.24.14-.4s.11-.39.18-.65.14-.58.22-1a1.4,1.4,0,0,1-.64-.79,3.62,3.62,0,0,1-.27-1.46,4.31,4.31,0,0,1,.23-1.39,6.89,6.89,0,0,1,.57-1.29,4.14,4.14,0,0,1,.75-.95,1.09,1.09,0,0,1,.71-.37.83.83,0,0,1,.7.49,2.19,2.19,0,0,1,.28,1.12,3.21,3.21,0,0,1-.07.68c-.05.23-.1.44-.16.63s-.11.36-.16.52a1.18,1.18,0,0,0-.07.36c0,.11,0,.17.13.17a1.17,1.17,0,0,0,.33-.09l.91-.41a2.32,2.32,0,0,1,.86-.21.83.83,0,0,1,.79.37,2.47,2.47,0,0,1,.19,1.1c0,.21,0,.58-.07,1.1s-.11,1.11-.16,1.75-.11,1.27-.15,1.9-.07,1.14-.07,1.54a2.46,2.46,0,0,0,.14.95.6.6,0,0,0,.61.31.9.9,0,0,0,.66-.39,5.74,5.74,0,0,0,.62-1c.2-.4.38-.83.56-1.3s.35-.92.49-1.36.28-.46.49-.46.29.11.29.33a.49.49,0,0,1,0,.12A.83.83,0,0,1,258.5,424.16Z" transform="translate(-220.45 -402.82)"/><path class="cls-2" d="M268.68,423.58a.27.27,0,0,1,.19.08.32.32,0,0,1,.09.24.65.65,0,0,1-.06.26c-.32.91-.65,1.77-1,2.58a15.44,15.44,0,0,1-1.08,2.12,6.74,6.74,0,0,1-1.14,1.43,1.8,1.8,0,0,1-1.21.53,4.06,4.06,0,0,1-.72-.11,3.59,3.59,0,0,1-1.14-.56,7.48,7.48,0,0,1-1.39-1.35,11.89,11.89,0,0,1-1.47-2.47c0,.73,0,1.31.07,1.74s.06.78.08,1a5.64,5.64,0,0,0,.08.56,1.78,1.78,0,0,1,0,.3c0,.14-.05.23-.16.26l-.34.1a.32.32,0,0,0-.22.13l-.2.24a1.4,1.4,0,0,1-.29.23.94.94,0,0,1-.47.1,1.07,1.07,0,0,1-.39-.07,1,1,0,0,1-.38-.24,1.41,1.41,0,0,1-.3-.46,2.1,2.1,0,0,1-.14-.73c0-.56,0-1.15-.06-1.78s0-1.27,0-1.9c0-1.43,0-2.83.11-4.19s.17-2.7.29-4,.26-2.62.39-3.9.28-2.56.41-3.82c.05-.46.1-.86.14-1.19a5.59,5.59,0,0,1,.17-.87,2.87,2.87,0,0,1,.24-.6,1.74,1.74,0,0,1,.34-.42l.54-.48.5-.43a3.72,3.72,0,0,1,.46-.31.79.79,0,0,1,.38-.12.43.43,0,0,1,.34.16.86.86,0,0,1,.14.56,10.56,10.56,0,0,1-.15,1.26c-.1.63-.23,1.56-.38,2.78s-.33,2.76-.53,4.64-.39,4.14-.57,6.8q-.06.72-.09,1.47t0,1.38v.12c.12-.2.21-.38.3-.53s.17-.3.26-.43.18-.26.29-.39l.36-.45a17.35,17.35,0,0,1,1.2-1.4c.36-.39.61-.66.73-.81a2,2,0,0,0,.13-.25c0-.09.09-.2.15-.31a2.68,2.68,0,0,1,.25-.37,2.26,2.26,0,0,1,.44-.43,1.77,1.77,0,0,1,.83-.44.3.3,0,0,1,.21.09.72.72,0,0,1,.17.22,1.33,1.33,0,0,1,.1.28.85.85,0,0,1,0,.24.78.78,0,0,1,0,.22,1,1,0,0,1-.12.23l-.25.3-.46.52-.57.64c-.2.23-.39.44-.56.65l-.49.54a2.92,2.92,0,0,0-.28.35,4.2,4.2,0,0,0-.33.48.94.94,0,0,0-.12.47,2,2,0,0,0,.15.69,7.75,7.75,0,0,0,.48,1,5.79,5.79,0,0,0,1.43,1.79,2.38,2.38,0,0,0,1.47.55,1,1,0,0,0,.67-.34,4.89,4.89,0,0,0,.69-.92,14.21,14.21,0,0,0,.67-1.3c.21-.48.43-1,.64-1.49C268.31,423.74,268.47,423.58,268.68,423.58Z" transform="translate(-220.45 -402.82)"/><path class="cls-2" d="M286.26,405.19c0,.06,0,.32-.06.77s-.07,1.05-.12,1.78-.11,1.6-.18,2.57-.14,2-.2,3.13-.14,2.25-.22,3.44-.15,2.37-.22,3.53l1.13.81c1.26-.29,2.55-.61,3.86-1s2.54-.68,3.68-1l1-13.92a4.31,4.31,0,0,1,.05-.46,1.22,1.22,0,0,1,.09-.32.49.49,0,0,1,.18-.2.85.85,0,0,1,.33-.11.69.69,0,0,0,.31-.14,1.12,1.12,0,0,0,.16-.22l.15-.21a.57.57,0,0,1,.25-.16,1.82,1.82,0,0,0,.36-.16l.38-.24.36-.21a.64.64,0,0,1,.31-.09.46.46,0,0,1,.36.16.62.62,0,0,1,.16.45c0,.09,0,.35,0,.79l-.12,1.72c-.05.72-.1,1.54-.17,2.48s-.14,1.95-.22,3-.17,2.18-.26,3.35-.19,2.32-.27,3.48L298,418l.43-.16a1.26,1.26,0,0,1,.39-.13.29.29,0,0,1,.23.09.43.43,0,0,1,.07.24,1.09,1.09,0,0,1-.07.33.59.59,0,0,1-.26.3,2.41,2.41,0,0,1-.53.25l-1.11.42c-.11,1.44-.21,2.81-.31,4.12s-.19,2.48-.27,3.5-.15,1.84-.2,2.46-.08,1-.09,1a.94.94,0,0,1-.29.67,1,1,0,0,1-.64.19.92.92,0,0,1-.48-.16,4.62,4.62,0,0,1-.57-.47l-.75-.77c-.28-.31-.63-.66-1-1.05-.73-.71-1.38-1.32-1.95-1.85s-1.12-1-1.64-1.45-1-.87-1.5-1.27L285.85,423l-.39.13-.4.11c-.07,1-.13,1.92-.19,2.8s-.11,1.65-.16,2.33-.08,1.26-.12,1.73-.06.78-.07.94a14.07,14.07,0,0,1-.29,1.62,7.61,7.61,0,0,1-.74,1.89,8.4,8.4,0,0,1-1.48,1.92,9.53,9.53,0,0,1-2.5,1.73l-.19.07a.48.48,0,0,1-.22,0,.31.31,0,0,1-.25-.11.4.4,0,0,1-.08-.26.66.66,0,0,1,.07-.3.73.73,0,0,1,.24-.26c.14-.1.31-.23.52-.41a3.3,3.3,0,0,0,.63-.72,5,5,0,0,0,.56-1.16,6.41,6.41,0,0,0,.3-1.7c0-.32.08-.86.13-1.63s.11-1.6.18-2.83.17-2.86.3-4.89a8.57,8.57,0,0,1-1,.1l-.91,0a9.27,9.27,0,0,1-2.66-.35,6.1,6.1,0,0,1-1.93-.95,4.09,4.09,0,0,1-1.18-1.36,3.56,3.56,0,0,1-.39-1.63,3.66,3.66,0,0,1,.25-1.43,2.77,2.77,0,0,1,.72-1,2.83,2.83,0,0,1,1.07-.57,4.52,4.52,0,0,1,1.29-.19,8.07,8.07,0,0,1,2.41.41,15.52,15.52,0,0,1,2.64,1.13l.65-12.09a1.06,1.06,0,0,1,.42-.86,1.71,1.71,0,0,1,1-.26.41.41,0,0,1,.17,0l.07,0a.46.46,0,0,0,.25-.08,2.19,2.19,0,0,0,.25-.2c.08-.07.15-.14.22-.19a.32.32,0,0,1,.21-.09.64.64,0,0,0,.39-.15.75.75,0,0,1,.41-.14c.19,0,.28.11.28.35A4.14,4.14,0,0,1,286.26,405.19Zm-5.16,16.89h.35l.36,0,.11-1.89a9.84,9.84,0,0,0-1.87-.91,4.37,4.37,0,0,0-1.4-.28,1.51,1.51,0,0,0-1,.3,1,1,0,0,0-.35.81,1.38,1.38,0,0,0,.21.71,2.18,2.18,0,0,0,.67.64,4.09,4.09,0,0,0,1.18.46A7.27,7.27,0,0,0,281.1,422.08Zm6.89.31c.93.71,1.83,1.43,2.72,2.15s1.77,1.55,2.68,2.45l.44-6.49c-.85.29-1.77.58-2.75.9Z" transform="translate(-220.45 -402.82)"/><path class="cls-2" d="M309.47,424.16c-.37,1.11-.72,2.08-1,2.92a15.57,15.57,0,0,1-1,2.09,4.52,4.52,0,0,1-1,1.28,2,2,0,0,1-1.22.42,1.1,1.1,0,0,1-.77-.29,3,3,0,0,1-.51-.67,3.64,3.64,0,0,1-.31-.72c-.06-.23-.11-.38-.13-.45a.28.28,0,0,1,0-.11c0-.05,0-.08-.06-.08s0,0-.06.06l-.07.11a2.54,2.54,0,0,1-.29.48,5.49,5.49,0,0,1-.61.73,4.43,4.43,0,0,1-.82.65,1.82,1.82,0,0,1-1,.29,1.41,1.41,0,0,1-.83-.28,2.42,2.42,0,0,1-.7-.75,4.44,4.44,0,0,1-.47-1.12,5.19,5.19,0,0,1-.18-1.39,8.94,8.94,0,0,1,.51-3,9.94,9.94,0,0,1,1.67-2.84,9.83,9.83,0,0,1,1.17-1.23,9,9,0,0,1,1.22-.9,5.92,5.92,0,0,1,1.14-.55,3.13,3.13,0,0,1,.94-.18,1.63,1.63,0,0,1,.52.09,1.17,1.17,0,0,1,.46.32,1.55,1.55,0,0,1,.33.58,2.84,2.84,0,0,1,.12.88,4.55,4.55,0,0,1-.18,1.21,4.66,4.66,0,0,1-.52,1.21,3.32,3.32,0,0,1-.84.94,1.87,1.87,0,0,1-1.14.37c-.26,0-.39-.1-.39-.29a3.56,3.56,0,0,1,.11-.67,4.76,4.76,0,0,0,.1-.89c0-.11,0-.25,0-.4a1.79,1.79,0,0,0-.09-.46,1,1,0,0,0-.21-.37.43.43,0,0,0-.35-.15,1.1,1.1,0,0,0-.87.47,3.81,3.81,0,0,0-.62,1.13,7.13,7.13,0,0,0-.38,1.39,6.88,6.88,0,0,0-.13,1.24,4.87,4.87,0,0,0,.11,1.18,2.15,2.15,0,0,0,.3.76,1,1,0,0,0,.42.41,1.11,1.11,0,0,0,.5.12,1.67,1.67,0,0,0,1.1-.41,4.86,4.86,0,0,0,.83-.93c.24-.34.43-.65.59-.93s.28-.42.38-.42.18.13.22.39a11.4,11.4,0,0,0,.24,1.37,5.92,5.92,0,0,0,.26.85,1.26,1.26,0,0,0,.27.42.41.41,0,0,0,.29.13.75.75,0,0,0,.55-.33,4.06,4.06,0,0,0,.56-.88c.19-.37.38-.8.58-1.3s.4-1,.63-1.58c.13-.3.29-.46.48-.46s.28.11.28.33A.69.69,0,0,1,309.47,424.16Z" transform="translate(-220.45 -402.82)"/><path class="cls-2" d="M325.64,423.58a.35.35,0,0,1,.2.07.34.34,0,0,1,.08.25,1.54,1.54,0,0,1-.05.26c-.33,1-.64,1.83-.93,2.59s-.59,1.44-.87,2a6.46,6.46,0,0,1-1.08,1.56,2.16,2.16,0,0,1-1.58.59,2.32,2.32,0,0,1-.77-.14,1.69,1.69,0,0,1-.69-.5,3.49,3.49,0,0,1-.58-1,6.93,6.93,0,0,1-.39-1.6c-.2.4-.42.79-.66,1.19a6.69,6.69,0,0,1-.8,1.06,3.92,3.92,0,0,1-1,.75,2.49,2.49,0,0,1-1.19.28,1.47,1.47,0,0,1-.89-.3,2.8,2.8,0,0,1-.73-.85,5.42,5.42,0,0,1-.48-1.31,7.36,7.36,0,0,1-.18-1.69,10.27,10.27,0,0,1,.18-1.93,11.75,11.75,0,0,1,.49-1.81,9.1,9.1,0,0,1,.77-1.6,7.41,7.41,0,0,1,2.79-2.63,3.57,3.57,0,0,1,1.54-.44H319l.17,0q.08-.9.15-1.92c.05-.67.12-1.39.22-2.16.12-1,.23-1.78.33-2.45s.2-1.24.29-1.72a10.38,10.38,0,0,1,.3-1.22,5.82,5.82,0,0,1,.38-1,2,2,0,0,1,.29-.46,2.57,2.57,0,0,1,.33-.33l.39-.33c.14-.12.3-.26.47-.43a4.69,4.69,0,0,1,.79-.66,1.16,1.16,0,0,1,.51-.2.65.65,0,0,1,.35.1.49.49,0,0,1,.13.4,1.55,1.55,0,0,1,0,.21q0,.1-.06.24t-.24,1c-.11.47-.24,1.05-.37,1.72s-.28,1.43-.43,2.28-.28,1.72-.41,2.63-.25,2.07-.36,3.11-.19,2-.26,3-.12,1.86-.16,2.7,0,1.59,0,2.25c0,.43,0,.83,0,1.19a5.63,5.63,0,0,0,.16,1,1.68,1.68,0,0,0,.31.63.6.6,0,0,0,.47.22.83.83,0,0,0,.59-.27,3.45,3.45,0,0,0,.54-.79c.19-.36.39-.79.6-1.3l.7-1.76C325.25,423.74,325.42,423.58,325.64,423.58ZM319,420.69c0-.54-.23-.8-.69-.8a1.66,1.66,0,0,0-1,.37,3.35,3.35,0,0,0-.85,1,6.28,6.28,0,0,0-.59,1.59,8.66,8.66,0,0,0-.23,2,4.51,4.51,0,0,0,.39,2,1.23,1.23,0,0,0,1.17.79,1.17,1.17,0,0,0,.76-.26,1.92,1.92,0,0,0,.51-.67,4.15,4.15,0,0,0,.3-.88,6.39,6.39,0,0,0,.14-.9c0-.42,0-.84,0-1.25s0-.82,0-1.2,0-.74,0-1.06S319,420.91,319,420.69Z" transform="translate(-220.45 -402.82)"/><path class="cls-2" d="M328.24,429.29A1.15,1.15,0,0,0,329,429a2.44,2.44,0,0,0,.56-.78,5.25,5.25,0,0,0,.38-1.12,11.18,11.18,0,0,0,.23-1.33,5.52,5.52,0,0,1-1.05-1,6.26,6.26,0,0,1-.92-1.44,4.48,4.48,0,0,1-.35-1,4.55,4.55,0,0,1-.12-1,3.9,3.9,0,0,1,.17-1.15,2.75,2.75,0,0,1,.49-.93,2.37,2.37,0,0,1,.81-.62,2.45,2.45,0,0,1,1.11-.24,2.14,2.14,0,0,1,1.31.38,2.83,2.83,0,0,1,.81,1,4.41,4.41,0,0,1,.42,1.27,7.53,7.53,0,0,1,.12,1.28,12.66,12.66,0,0,1-.11,1.6,11.15,11.15,0,0,1-.32,1.65,2.91,2.91,0,0,0,1.23-.38,2.51,2.51,0,0,0,.9-1.11c.15-.3.31-.46.47-.46a.48.48,0,0,1,.23.07.28.28,0,0,1,.1.25.85.85,0,0,1-.05.26,3.38,3.38,0,0,1-1.24,1.67,3.27,3.27,0,0,1-1.92.61,10.6,10.6,0,0,1-.77,1.71,6.41,6.41,0,0,1-1.06,1.42,4.82,4.82,0,0,1-1.4,1,4.2,4.2,0,0,1-1.72.35,4.89,4.89,0,0,1-1.13-.15,2.79,2.79,0,0,1-1.19-.62,3.67,3.67,0,0,1-.94-1.34,5.77,5.77,0,0,1-.38-2.29,7.71,7.71,0,0,1,.44-2.46,8.4,8.4,0,0,1,1.45-2.58,3,3,0,0,1,.72-.69,1,1,0,0,1,.53-.2c.27,0,.41.16.41.5a1.38,1.38,0,0,1-.15.55,8.57,8.57,0,0,0-.32.86,10,10,0,0,0-.31,1.23,8.31,8.31,0,0,0-.15,1.68,6.27,6.27,0,0,0,.53,2.88A1.57,1.57,0,0,0,328.24,429.29Zm2.06-5.45a7.39,7.39,0,0,0-.36-2.72c-.23-.55-.49-.77-.77-.66a.36.36,0,0,0-.22.34,4.32,4.32,0,0,0,0,.5,3.28,3.28,0,0,0,.12.85,7.06,7.06,0,0,0,.28.89,5.21,5.21,0,0,0,.43.85,6.84,6.84,0,0,0,.53.73c0-.14,0-.27,0-.39Z" transform="translate(-220.45 -402.82)"/><path class="cls-2" d="M347.55,423.58a.27.27,0,0,1,.19.08.32.32,0,0,1,.09.24.6.6,0,0,1-.06.27c-.38,1.11-.73,2.07-1.06,2.91a14.35,14.35,0,0,1-1,2.09,5.09,5.09,0,0,1-1,1.26,1.79,1.79,0,0,1-1.15.42,2,2,0,0,1-1.26-.36,2.35,2.35,0,0,1-.76-.94,4.23,4.23,0,0,1-.38-1.29,11.12,11.12,0,0,1-.09-1.41c0-.34,0-.67,0-1s0-.64.05-.93,0-.57,0-.8,0-.43,0-.58a.87.87,0,0,0-.12-.51.33.33,0,0,0-.55,0,2,2,0,0,0-.18.36c-.06.15-.16.42-.28.8s-.27.82-.43,1.3-.33,1-.51,1.51-.34,1-.49,1.42a10.74,10.74,0,0,1-.57,1.33,3.6,3.6,0,0,1-.51.79,1.43,1.43,0,0,1-.47.38,1,1,0,0,1-.43.1,1.07,1.07,0,0,1-.39-.07,1.1,1.1,0,0,1-.35-.24,1.8,1.8,0,0,1-.27-.46,2.16,2.16,0,0,1-.11-.73c0-.63,0-1.32,0-2s0-1.46,0-2.16c0-.34,0-.66,0-1s0-.59,0-.85a3.41,3.41,0,0,0-.06-.77c0-.16-.09-.23-.15-.23s-.25.13-.34.39-.25.68-.48,1.24a1.14,1.14,0,0,1-.23.39.38.38,0,0,1-.25.11.27.27,0,0,1-.19-.08.4.4,0,0,1-.09-.29,1.72,1.72,0,0,1,.1-.4c.06-.19.14-.4.23-.63s.18-.47.28-.71.17-.44.25-.62a8.36,8.36,0,0,1,.4-.88,5.13,5.13,0,0,1,.52-.84,3.13,3.13,0,0,1,.63-.63,1.3,1.3,0,0,1,.75-.25,1.15,1.15,0,0,1,1,.6,3.33,3.33,0,0,1,.46,1.8c0,.64,0,1.25,0,1.82s0,1.08,0,1.51,0,.77,0,1a1.88,1.88,0,0,0,0,.38s.08-.11.17-.34l.33-.88c.14-.36.29-.78.46-1.24l.55-1.41c.19-.48.39-.93.61-1.37a11,11,0,0,1,.63-1.16,2.94,2.94,0,0,1,.71-.82,1.45,1.45,0,0,1,.86-.28,1,1,0,0,1,1,.79,6.21,6.21,0,0,1,.29,2.13c0,.22,0,.49,0,.81s0,.66-.05,1,0,.72-.05,1.08,0,.69,0,1a10.33,10.33,0,0,0,.06,1.24,2.58,2.58,0,0,0,.18.73.76.76,0,0,0,.24.35.43.43,0,0,0,.26.09.9.9,0,0,0,.67-.33,3.58,3.58,0,0,0,.59-.91c.18-.38.37-.82.56-1.31s.39-1,.61-1.55C347.16,423.74,347.33,423.58,347.55,423.58Z" transform="translate(-220.45 -402.82)"/><path class="cls-2" d="M352.13,418.59a1.21,1.21,0,0,1,.68.17,1.3,1.3,0,0,1,.45.42,1.67,1.67,0,0,1,.23.6,3.82,3.82,0,0,1,.07.68,4.4,4.4,0,0,1-.18,1.18,5,5,0,0,1-.52,1.22,3.36,3.36,0,0,1-.84.95,1.82,1.82,0,0,1-1.14.38c-.27,0-.4-.1-.4-.29a1.86,1.86,0,0,1,.13-.59,3.49,3.49,0,0,0,.13-1c0-.11,0-.24,0-.39a1.58,1.58,0,0,0-.1-.43.94.94,0,0,0-.2-.35.47.47,0,0,0-.37-.15,1.11,1.11,0,0,0-.84.42,4.07,4.07,0,0,0-.64,1.05,6.42,6.42,0,0,0-.4,1.37,7,7,0,0,0-.14,1.39,4.06,4.06,0,0,0,.13,1.14,2,2,0,0,0,.35.74,1.34,1.34,0,0,0,.51.39,1.73,1.73,0,0,0,.6.11,2.09,2.09,0,0,0,1.29-.41,5.4,5.4,0,0,0,.95-.89,9.34,9.34,0,0,0,.65-.89c.16-.27.3-.41.4-.41s.21.11.22.34,0,.47,0,.76,0,.56,0,1,0,.95-.07,1.51-.07,1.14-.11,1.76-.07,1.21-.11,1.77-.07,1.08-.1,1.54-.05.8-.06,1c-.07,1.08-.13,2-.19,2.76s-.12,1.41-.19,1.94-.12,1-.17,1.29-.12.6-.18.82a.83.83,0,0,1-.27.44,2,2,0,0,1-.41.25l-.44.15a.64.64,0,0,0-.32.15c-.33.26-.58.45-.78.59a.85.85,0,0,1-.49.2.36.36,0,0,1-.27-.11.48.48,0,0,1-.12-.37,2.74,2.74,0,0,1,0-.31,2.56,2.56,0,0,1,.07-.36s0-.09,0-.16,0-.21.07-.39.06-.44.11-.76.11-.73.19-1.27.16-1.18.26-1.95.21-1.71.35-2.8c0-.27.08-.64.13-1.11s.1-1,.17-1.55.12-1.15.18-1.75.11-1.18.15-1.73c0-.07,0-.11-.06-.11s-.08.05-.14.15a3.85,3.85,0,0,1-.23.38l-.36.51a3.9,3.9,0,0,1-.53.56,3.79,3.79,0,0,1-.72.49,1.85,1.85,0,0,1-.86.21,1.38,1.38,0,0,1-.82-.28,2.56,2.56,0,0,1-.71-.75,4.11,4.11,0,0,1-.48-1.12,5.19,5.19,0,0,1-.17-1.39,8.84,8.84,0,0,1,.51-3,10.75,10.75,0,0,1,2.83-4.08,7.88,7.88,0,0,1,1.21-.9,6.61,6.61,0,0,1,1.15-.55A3.13,3.13,0,0,1,352.13,418.59Z" transform="translate(-220.45 -402.82)"/></g></g></g></svg>