<svg id="레이어_1" data-name="레이어 1" xmlns="http://www.w3.org/2000/svg" viewBox="0 0 116.71 96.7"><defs><style>.cls-1{isolation:isolate;}.cls-2{fill:#fff;}</style></defs><g id="WEGO_JAPAN" data-name="WEGO JAPAN" class="cls-1"><g class="cls-1"><path class="cls-2" d="M338,236.29l-2.74-10.79h1.47L338,231c.32,1.34.61,2.68.8,3.72h0c.17-1.07.51-2.35.88-3.74l1.44-5.44h1.45l1.32,5.47c.3,1.28.59,2.56.75,3.7h0c.22-1.19.53-2.39.86-3.73L347,225.5h1.42l-3,10.79h-1.46l-1.36-5.62a33.72,33.72,0,0,1-.71-3.52h0a33.71,33.71,0,0,1-.83,3.52l-1.54,5.62Z" transform="translate(-335.23 -157.29)"/><path class="cls-2" d="M358.53,231.23h-4.2v3.89H359v1.17h-6.07V225.5h5.83v1.17h-4.44v3.4h4.2Z" transform="translate(-335.23 -157.29)"/><path class="cls-2" d="M372.23,235.8a9.92,9.92,0,0,1-3.32.6,5.08,5.08,0,0,1-5.54-5.44c0-3.22,2.23-5.58,5.85-5.58a6.79,6.79,0,0,1,2.69.5l-.34,1.14a5.56,5.56,0,0,0-2.39-.47,4,4,0,0,0-4.33,4.34c0,2.74,1.64,4.36,4.16,4.36a4.5,4.5,0,0,0,1.85-.29v-3.22h-2.19v-1.12h3.56Z" transform="translate(-335.23 -157.29)"/><path class="cls-2" d="M386.77,230.78c0,3.71-2.26,5.68-5,5.68s-4.85-2.21-4.85-5.47c0-3.43,2.13-5.67,5-5.67S386.77,227.58,386.77,230.78Zm-8.37.18c0,2.3,1.25,4.37,3.44,4.37s3.46-2,3.46-4.49c0-2.14-1.12-4.38-3.44-4.38S378.4,228.59,378.4,231Z" transform="translate(-335.23 -157.29)"/><path class="cls-2" d="M400.57,225.5H402v7.22c0,2.86-1.41,3.74-3.27,3.74a4.68,4.68,0,0,1-1.49-.25l.21-1.14a3.4,3.4,0,0,0,1.17.21c1.25,0,2-.56,2-2.68Z" transform="translate(-335.23 -157.29)"/><path class="cls-2" d="M409.23,232.89l-1.12,3.4h-1.44l3.66-10.79H412l3.68,10.79h-1.49l-1.15-3.4Zm3.54-1.09-1.06-3.1c-.24-.71-.4-1.35-.56-2h0c-.16.64-.34,1.3-.55,2l-1.05,3.12Z" transform="translate(-335.23 -157.29)"/><path class="cls-2" d="M420.48,225.62a16.45,16.45,0,0,1,2.67-.2,4.47,4.47,0,0,1,3,.89,2.92,2.92,0,0,1,.94,2.26,3.22,3.22,0,0,1-.83,2.31,4.5,4.5,0,0,1-3.3,1.18,4.76,4.76,0,0,1-1.12-.1v4.33h-1.39Zm1.39,5.21a4.66,4.66,0,0,0,1.15.11c1.68,0,2.71-.82,2.71-2.31s-1-2.11-2.55-2.11a6.09,6.09,0,0,0-1.31.11Z" transform="translate(-335.23 -157.29)"/><path class="cls-2" d="M432.59,232.89l-1.12,3.4H430l3.66-10.79h1.69l3.68,10.79h-1.49l-1.15-3.4Zm3.54-1.09-1.06-3.1c-.24-.71-.4-1.35-.56-2h0c-.16.64-.34,1.3-.54,2l-1.06,3.12Z" transform="translate(-335.23 -157.29)"/><path class="cls-2" d="M443.84,236.29V225.5h1.52l3.46,5.46a30.09,30.09,0,0,1,1.93,3.5l0,0c-.12-1.44-.16-2.75-.16-4.43V225.5h1.32v10.79h-1.41l-3.43-5.48a33.6,33.6,0,0,1-2-3.6l0,0c.08,1.36.11,2.65.11,4.45v4.61Z" transform="translate(-335.23 -157.29)"/></g></g><g id="INTERNATIONAL" class="cls-1"><g class="cls-1"><path class="cls-2" d="M349.16,247.82v6.07h-.79v-6.07Z" transform="translate(-335.23 -157.29)"/><path class="cls-2" d="M353,253.89v-6.07h.86l1.94,3.07a17.49,17.49,0,0,1,1.09,2h0c-.07-.81-.09-1.55-.09-2.49v-2.54h.74v6.07h-.79l-1.93-3.08a18.92,18.92,0,0,1-1.13-2h0c0,.77.06,1.49.06,2.5v2.6Z" transform="translate(-335.23 -157.29)"/><path class="cls-2" d="M362.64,248.48h-1.85v-.66h4.49v.66h-1.85v5.41h-.79Z" transform="translate(-335.23 -157.29)"/><path class="cls-2" d="M371.62,251h-2.36v2.19h2.63v.66h-3.41v-6.07h3.27v.66h-2.49v1.91h2.36Z" transform="translate(-335.23 -157.29)"/><path class="cls-2" d="M375.43,247.9a8.13,8.13,0,0,1,1.5-.13,2.46,2.46,0,0,1,1.75.5,1.49,1.49,0,0,1,.48,1.15A1.6,1.6,0,0,1,378,251v0a1.49,1.49,0,0,1,.89,1.22,9.57,9.57,0,0,0,.47,1.67h-.81a8,8,0,0,1-.41-1.45c-.18-.84-.5-1.16-1.21-1.18h-.74v2.63h-.78Zm.78,2.76h.8c.84,0,1.37-.46,1.37-1.15s-.57-1.13-1.4-1.13a3.08,3.08,0,0,0-.77.07Z" transform="translate(-335.23 -157.29)"/><path class="cls-2" d="M382.79,253.89v-6.07h.85l1.95,3.07a17.49,17.49,0,0,1,1.09,2h0c-.07-.81-.09-1.55-.09-2.49v-2.54h.74v6.07h-.79l-1.93-3.08a20.83,20.83,0,0,1-1.13-2h0c.05.77.07,1.49.07,2.5v2.6Z" transform="translate(-335.23 -157.29)"/><path class="cls-2" d="M392.21,252l-.63,1.91h-.81l2.06-6.07h.95l2.07,6.07H395l-.65-1.91Zm2-.62-.59-1.74c-.14-.4-.23-.76-.32-1.11h0c-.09.36-.19.73-.3,1.1l-.6,1.75Z" transform="translate(-335.23 -157.29)"/><path class="cls-2" d="M399.72,248.48h-1.85v-.66h4.49v.66h-1.85v5.41h-.79Z" transform="translate(-335.23 -157.29)"/><path class="cls-2" d="M406.34,247.82v6.07h-.78v-6.07Z" transform="translate(-335.23 -157.29)"/><path class="cls-2" d="M415.41,250.79c0,2.09-1.27,3.19-2.81,3.19a2.77,2.77,0,0,1-2.73-3.07,2.89,2.89,0,0,1,2.82-3.19A2.76,2.76,0,0,1,415.41,250.79Zm-4.7.1c0,1.29.7,2.46,1.93,2.46s1.95-1.15,1.95-2.53c0-1.2-.63-2.46-1.94-2.46S410.71,249.56,410.71,250.89Z" transform="translate(-335.23 -157.29)"/><path class="cls-2" d="M419,253.89v-6.07h.85l1.95,3.07a17.49,17.49,0,0,1,1.09,2h0c-.07-.81-.09-1.55-.09-2.49v-2.54h.73v6.07h-.79l-1.92-3.08a19.06,19.06,0,0,1-1.14-2h0c0,.77.06,1.49.06,2.5v2.6Z" transform="translate(-335.23 -157.29)"/><path class="cls-2" d="M428.37,252l-.63,1.91h-.81l2.06-6.07h.95l2.07,6.07h-.84l-.65-1.91Zm2-.62-.59-1.74c-.14-.4-.23-.76-.32-1.11h0c-.1.36-.19.73-.31,1.1l-.59,1.75Z" transform="translate(-335.23 -157.29)"/><path class="cls-2" d="M435.42,247.82h.78v5.41h2.59v.66h-3.37Z" transform="translate(-335.23 -157.29)"/></g></g><g id="그룹_229" data-name="그룹 229"><g id="그룹_221" data-name="그룹 221"><path id="패스_1002" data-name="패스 1002" class="cls-2" d="M369.94,159.3v34.64l22.77,11.38v-29l-6,4.64V196l-10.51-5.25V163.5Z" transform="translate(-335.23 -157.29)"/><path id="패스_1003" data-name="패스 1003" class="cls-2" d="M417.23,157.29v36.87l-22.77,11.39V175l6-4.68v26L410.93,191V162.23Z" transform="translate(-335.23 -157.29)"/></g></g></svg>